# xmcd
#
# Track frame offsets:
#	150
#	15958
#	33512
#	49851
#	64807
#	80170
#	93803
#	109854
#	126540
#	139885
#	152874
#
# Disc length: 2250 seconds
#
# Revision: 0
# Processed by: cddbd v1.5.2PL0 Copyright (c) Steve Scherf et al.
# Submitted via: EasyCDDAExtractor 11.0.3.1
#
DISCID=9408c80b
DTITLE=Gretchen Wilson - One Of The Boys
DYEAR=2007
DGENRE=Country
TTITLE0=The Girl I Am
TTITLE1=Come To Bed (Feat. John Rich)
TTITLE2=One Of The Boys
TTITLE3=You Don't Have To Go Home
TTITLE4=Heaven Help Me
TTITLE5=There's A Place In The Whiskey
TTITLE6=If You Want A Mother
TTITLE7=Pain Killer
TTITLE8=There Goes The Neighborhood
TTITLE9=Good Ole Boy
TTITLE10=To Tell The Truth
EXTD=
EXTT0=
EXTT1=
EXTT2=
EXTT3=
EXTT4=
EXTT5=
EXTT6=
EXTT7=
EXTT8=
EXTT9=
EXTT10=
PLAYORDER=
